<svg width="38" height="38" viewBox="0 0 38 38" fill="none" xmlns="http://www.w3.org/2000/svg">
<path d="M15.8333 3.16669H22.1667C23.0065 3.16669 23.812 3.50032 24.4058 4.09418C24.9997 4.68805 25.3333 5.4935 25.3333 6.33335V9.50002H31.6667C32.5065 9.50002 33.312 9.83365 33.9058 10.4275C34.4997 11.0214 34.8333 11.8268 34.8333 12.6667V30.0834C34.8333 30.9232 34.4997 31.7287 33.9058 32.3225C33.312 32.9164 32.5065 33.25 31.6667 33.25H6.33334C5.49349 33.25 4.68803 32.9164 4.09417 32.3225C3.5003 31.7287 3.16667 30.9232 3.16667 30.0834V12.6667C3.16667 10.9092 4.57584 9.50002 6.33334 9.50002H12.6667V6.33335C12.6667 4.57585 14.0758 3.16669 15.8333 3.16669ZM22.1667 9.50002V6.33335H15.8333V9.50002H22.1667Z" fill="#FB7415"/>
</svg>
