<svg width="38" height="38" viewBox="0 0 38 38" fill="none" xmlns="http://www.w3.org/2000/svg">
<path d="M30.0833 3.16669H7.91667C5.225 3.16669 3.16667 5.22502 3.16667 7.91669V30.0834C3.16667 32.775 5.225 34.8334 7.91667 34.8334H30.0833C32.775 34.8334 34.8333 32.775 34.8333 30.0834V7.91669C34.8333 5.22502 32.775 3.16669 30.0833 3.16669ZM12.6667 26.9167C12.6667 27.8667 12.0333 28.5 11.0833 28.5C10.1333 28.5 9.5 27.8667 9.5 26.9167V20.5834C9.5 19.6334 10.1333 19 11.0833 19C12.0333 19 12.6667 19.6334 12.6667 20.5834V26.9167ZM20.5833 26.9167C20.5833 27.8667 19.95 28.5 19 28.5C18.05 28.5 17.4167 27.8667 17.4167 26.9167V11.0834C17.4167 10.1334 18.05 9.50002 19 9.50002C19.95 9.50002 20.5833 10.1334 20.5833 11.0834V26.9167ZM28.5 26.9167C28.5 27.8667 27.8667 28.5 26.9167 28.5C25.9667 28.5 25.3333 27.8667 25.3333 26.9167V17.4167C25.3333 16.4667 25.9667 15.8334 26.9167 15.8334C27.8667 15.8334 28.5 16.4667 28.5 17.4167V26.9167Z" fill="#FB7415"/>
</svg>
