<svg width="182" height="40" viewBox="0 0 182 40" fill="none" xmlns="http://www.w3.org/2000/svg">
<path d="M30.5257 8.35387L24.4705 0L2.20571 17.5025L0.971429 17.4893V17.5081H0V40H40V17.5081H38.1676L34.5219 7.01373L30.5257 8.35387ZM34.1429 17.5081H15.0419L29.2686 12.736L32.1676 11.8233L34.1429 17.5081ZM26.7619 9.61717L12.0762 14.5429L23.7067 5.39993L26.7619 9.61717ZM3.80952 32.8195V24.6849C4.61313 24.4047 5.34306 23.9515 5.94609 23.3584C6.54911 22.7654 7.01003 22.0474 7.29524 21.2567H32.7048C32.9898 22.0476 33.4507 22.766 34.0537 23.3593C34.6567 23.9527 35.3867 24.4062 36.1905 24.6868V32.8213C35.3867 33.1019 34.6567 33.5553 34.0537 34.1487C33.4507 34.7421 32.9898 35.4604 32.7048 36.2513H7.29905C7.01368 35.4598 6.55231 34.7409 5.94861 34.1472C5.3449 33.5534 4.6141 33.0998 3.80952 32.8195Z" fill="#FB7415"/>
<path d="M57.7695 8.5625V37H51.9297V8.5625H57.7695Z" fill="#FB7415"/>
<path d="M68.4141 20.3789V37H62.7891V15.8672H68.0625L68.4141 20.3789ZM67.5938 25.6914H66.0703C66.0703 24.1289 66.2721 22.7227 66.6758 21.4727C67.0794 20.2096 67.6458 19.1354 68.375 18.25C69.1042 17.3516 69.9701 16.668 70.9727 16.1992C71.9883 15.7174 73.1211 15.4766 74.3711 15.4766C75.3607 15.4766 76.2656 15.6198 77.0859 15.9062C77.9062 16.1927 78.6094 16.6484 79.1953 17.2734C79.7943 17.8984 80.25 18.7253 80.5625 19.7539C80.888 20.7826 81.0508 22.0391 81.0508 23.5234V37H75.3867V23.5039C75.3867 22.5664 75.2565 21.8372 74.9961 21.3164C74.7357 20.7956 74.3516 20.431 73.8438 20.2227C73.349 20.0013 72.737 19.8906 72.0078 19.8906C71.2526 19.8906 70.5951 20.0404 70.0352 20.3398C69.4883 20.6393 69.0326 21.056 68.668 21.5898C68.3164 22.1107 68.0495 22.7227 67.8672 23.4258C67.6849 24.1289 67.5938 24.8841 67.5938 25.6914Z" fill="#FB7415"/>
<path d="M94.0586 32.9961C94.7487 32.9961 95.3607 32.8659 95.8945 32.6055C96.4284 32.332 96.8451 31.9544 97.1445 31.4727C97.457 30.9779 97.6198 30.3984 97.6328 29.7344H102.926C102.913 31.2188 102.516 32.5404 101.734 33.6992C100.953 34.8451 99.9049 35.75 98.5898 36.4141C97.2747 37.0651 95.8034 37.3906 94.1758 37.3906C92.5352 37.3906 91.1029 37.1172 89.8789 36.5703C88.668 36.0234 87.6589 35.2682 86.8516 34.3047C86.0443 33.3281 85.4388 32.1953 85.0352 30.9062C84.6315 29.6042 84.4297 28.2109 84.4297 26.7266V26.1602C84.4297 24.6628 84.6315 23.2695 85.0352 21.9805C85.4388 20.6784 86.0443 19.5456 86.8516 18.582C87.6589 17.6055 88.668 16.8438 89.8789 16.2969C91.0898 15.75 92.5091 15.4766 94.1367 15.4766C95.8685 15.4766 97.3854 15.8086 98.6875 16.4727C100.003 17.1367 101.031 18.0872 101.773 19.3242C102.529 20.5482 102.913 22 102.926 23.6797H97.6328C97.6198 22.9766 97.4701 22.3385 97.1836 21.7656C96.9102 21.1927 96.5065 20.737 95.9727 20.3984C95.4518 20.0469 94.8073 19.8711 94.0391 19.8711C93.2188 19.8711 92.5482 20.0469 92.0273 20.3984C91.5065 20.737 91.1029 21.2057 90.8164 21.8047C90.5299 22.3906 90.3281 23.0612 90.2109 23.8164C90.1068 24.5586 90.0547 25.3398 90.0547 26.1602V26.7266C90.0547 27.5469 90.1068 28.3346 90.2109 29.0898C90.3151 29.8451 90.5104 30.5156 90.7969 31.1016C91.0964 31.6875 91.5065 32.1497 92.0273 32.4883C92.5482 32.8268 93.2253 32.9961 94.0586 32.9961Z" fill="#FB7415"/>
<path d="M105.289 26.6484V26.2383C105.289 24.6888 105.51 23.263 105.953 21.9609C106.396 20.6458 107.04 19.5065 107.887 18.543C108.733 17.5794 109.775 16.8307 111.012 16.2969C112.249 15.75 113.668 15.4766 115.27 15.4766C116.871 15.4766 118.297 15.75 119.547 16.2969C120.797 16.8307 121.845 17.5794 122.691 18.543C123.551 19.5065 124.202 20.6458 124.645 21.9609C125.087 23.263 125.309 24.6888 125.309 26.2383V26.6484C125.309 28.1849 125.087 29.6107 124.645 30.9258C124.202 32.2279 123.551 33.3672 122.691 34.3438C121.845 35.3073 120.803 36.056 119.566 36.5898C118.329 37.1237 116.91 37.3906 115.309 37.3906C113.707 37.3906 112.281 37.1237 111.031 36.5898C109.794 36.056 108.746 35.3073 107.887 34.3438C107.04 33.3672 106.396 32.2279 105.953 30.9258C105.51 29.6107 105.289 28.1849 105.289 26.6484ZM110.914 26.2383V26.6484C110.914 27.5339 110.992 28.3607 111.148 29.1289C111.305 29.8971 111.552 30.5742 111.891 31.1602C112.242 31.7331 112.698 32.1823 113.258 32.5078C113.818 32.8333 114.501 32.9961 115.309 32.9961C116.09 32.9961 116.76 32.8333 117.32 32.5078C117.88 32.1823 118.329 31.7331 118.668 31.1602C119.007 30.5742 119.254 29.8971 119.41 29.1289C119.579 28.3607 119.664 27.5339 119.664 26.6484V26.2383C119.664 25.3789 119.579 24.5716 119.41 23.8164C119.254 23.0482 119 22.3711 118.648 21.7852C118.31 21.1862 117.861 20.7174 117.301 20.3789C116.741 20.0404 116.064 19.8711 115.27 19.8711C114.475 19.8711 113.798 20.0404 113.238 20.3789C112.691 20.7174 112.242 21.1862 111.891 21.7852C111.552 22.3711 111.305 23.0482 111.148 23.8164C110.992 24.5716 110.914 25.3789 110.914 26.2383Z" fill="#FB7415"/>
<path d="M134.391 20.2422V37H128.746V15.8672H134.039L134.391 20.2422ZM133.609 25.6914H132.047C132.047 24.2201 132.223 22.8659 132.574 21.6289C132.939 20.3789 133.466 19.2982 134.156 18.3867C134.859 17.4622 135.725 16.7461 136.754 16.2383C137.783 15.7305 138.974 15.4766 140.328 15.4766C141.266 15.4766 142.125 15.6198 142.906 15.9062C143.688 16.1797 144.358 16.6159 144.918 17.2148C145.491 17.8008 145.934 18.569 146.246 19.5195C146.559 20.457 146.715 21.5833 146.715 22.8984V37H141.09V23.5234C141.09 22.5599 140.96 21.8177 140.699 21.2969C140.439 20.776 140.068 20.4115 139.586 20.2031C139.117 19.9948 138.551 19.8906 137.887 19.8906C137.158 19.8906 136.52 20.0404 135.973 20.3398C135.439 20.6393 134.996 21.056 134.645 21.5898C134.293 22.1107 134.033 22.7227 133.863 23.4258C133.694 24.1289 133.609 24.8841 133.609 25.6914ZM146.188 25.0469L144.176 25.3008C144.176 23.9206 144.345 22.638 144.684 21.4531C145.035 20.2682 145.549 19.2266 146.227 18.3281C146.917 17.4297 147.77 16.7331 148.785 16.2383C149.801 15.7305 150.973 15.4766 152.301 15.4766C153.316 15.4766 154.241 15.6263 155.074 15.9258C155.908 16.2122 156.617 16.6745 157.203 17.3125C157.802 17.9375 158.258 18.7578 158.57 19.7734C158.896 20.7891 159.059 22.0326 159.059 23.5039V37H153.414V23.5039C153.414 22.5273 153.284 21.7852 153.023 21.2773C152.776 20.7565 152.411 20.3984 151.93 20.2031C151.461 19.9948 150.901 19.8906 150.25 19.8906C149.573 19.8906 148.98 20.0273 148.473 20.3008C147.965 20.5612 147.542 20.9258 147.203 21.3945C146.865 21.8633 146.611 22.4102 146.441 23.0352C146.272 23.6471 146.188 24.3177 146.188 25.0469Z" fill="#FB7415"/>
<path d="M173.141 37.3906C171.5 37.3906 170.029 37.1302 168.727 36.6094C167.424 36.0755 166.318 35.3398 165.406 34.4023C164.508 33.4648 163.818 32.3776 163.336 31.1406C162.854 29.8906 162.613 28.5625 162.613 27.1562V26.375C162.613 24.7734 162.841 23.3086 163.297 21.9805C163.753 20.6523 164.404 19.5 165.25 18.5234C166.109 17.5469 167.151 16.7982 168.375 16.2773C169.599 15.7435 170.979 15.4766 172.516 15.4766C174.013 15.4766 175.341 15.724 176.5 16.2188C177.659 16.7135 178.629 17.4167 179.41 18.3281C180.204 19.2396 180.803 20.3333 181.207 21.6094C181.611 22.8724 181.812 24.2786 181.812 25.8281V28.1719H165.016V24.4219H176.285V23.9922C176.285 23.2109 176.142 22.5143 175.855 21.9023C175.582 21.2773 175.165 20.7826 174.605 20.418C174.046 20.0534 173.329 19.8711 172.457 19.8711C171.715 19.8711 171.077 20.0339 170.543 20.3594C170.009 20.6849 169.573 21.1406 169.234 21.7266C168.909 22.3125 168.661 23.0026 168.492 23.7969C168.336 24.5781 168.258 25.4375 168.258 26.375V27.1562C168.258 28.0026 168.375 28.7839 168.609 29.5C168.857 30.2161 169.202 30.8346 169.645 31.3555C170.1 31.8763 170.647 32.2799 171.285 32.5664C171.936 32.8529 172.672 32.9961 173.492 32.9961C174.508 32.9961 175.452 32.8008 176.324 32.4102C177.21 32.0065 177.971 31.401 178.609 30.5938L181.344 33.5625C180.901 34.2005 180.296 34.8125 179.527 35.3984C178.772 35.9844 177.861 36.4661 176.793 36.8438C175.725 37.2083 174.508 37.3906 173.141 37.3906Z" fill="#FB7415"/>
</svg>
