<svg width="177" height="31" viewBox="0 0 177 31" fill="none" xmlns="http://www.w3.org/2000/svg">
<path d="M74.0703 15.4701V26.7396C73.6276 27.2734 72.944 27.8529 72.0195 28.4779C71.0951 29.0898 69.9036 29.6172 68.4453 30.0599C66.987 30.5026 65.2227 30.724 63.1523 30.724C61.3164 30.724 59.6432 30.4245 58.1328 29.8255C56.6224 29.2135 55.3203 28.3216 54.2266 27.1497C53.1458 25.9779 52.3125 24.5456 51.7266 22.8529C51.1406 21.1471 50.8477 19.2005 50.8477 17.013V15.2357C50.8477 13.0482 51.1276 11.1016 51.6875 9.39583C52.2604 7.6901 53.0742 6.2513 54.1289 5.07943C55.1836 3.90755 56.4401 3.01563 57.8984 2.40365C59.3568 1.79167 60.9779 1.48568 62.7617 1.48568C65.2357 1.48568 67.2669 1.88932 68.8555 2.69661C70.444 3.49089 71.6549 4.59766 72.4883 6.01693C73.3346 7.42318 73.8555 9.03776 74.0508 10.8607H68.3672C68.224 9.89714 67.9505 9.05729 67.5469 8.34115C67.1432 7.625 66.5638 7.0651 65.8086 6.66146C65.0664 6.25781 64.1029 6.05599 62.918 6.05599C61.9414 6.05599 61.069 6.25781 60.3008 6.66146C59.5456 7.05208 58.9076 7.63151 58.3867 8.39974C57.8659 9.16797 57.4688 10.1185 57.1953 11.2513C56.9219 12.3841 56.7852 13.6992 56.7852 15.1966V17.013C56.7852 18.4974 56.9284 19.8125 57.2148 20.9583C57.5013 22.0911 57.9245 23.0482 58.4844 23.8294C59.0573 24.5977 59.7604 25.1771 60.5938 25.5677C61.4271 25.9583 62.3971 26.1536 63.5039 26.1536C64.4284 26.1536 65.1966 26.0755 65.8086 25.9193C66.4336 25.763 66.9349 25.5742 67.3125 25.3529C67.7031 25.1185 68.0026 24.8971 68.2109 24.6888V19.6497H62.8594V15.4701H74.0703Z" fill="#FB7415"/>
<path d="M84.0703 13.8099V30.3333H78.4453V9.20052H83.7383L84.0703 13.8099ZM90.4375 9.0638L90.3398 14.2786C90.0664 14.2396 89.7344 14.207 89.3438 14.181C88.9661 14.1419 88.6211 14.1224 88.3086 14.1224C87.5143 14.1224 86.8242 14.2266 86.2383 14.4349C85.6654 14.6302 85.1836 14.9232 84.793 15.3138C84.4154 15.7044 84.1289 16.1797 83.9336 16.7396C83.7513 17.2995 83.6471 17.9375 83.6211 18.6536L82.4883 18.3021C82.4883 16.9349 82.625 15.6784 82.8984 14.5326C83.1719 13.3737 83.569 12.3646 84.0898 11.5052C84.6237 10.6458 85.2747 9.98177 86.043 9.51302C86.8112 9.04427 87.6901 8.8099 88.6797 8.8099C88.9922 8.8099 89.3112 8.83594 89.6367 8.88802C89.9622 8.92708 90.2292 8.98568 90.4375 9.0638Z" fill="#FB7415"/>
<path d="M91.6094 19.9818V19.5716C91.6094 18.0221 91.8307 16.5964 92.2734 15.2943C92.7161 13.9792 93.3607 12.8398 94.207 11.8763C95.0534 10.9128 96.0951 10.1641 97.332 9.63021C98.569 9.08333 99.9883 8.8099 101.59 8.8099C103.191 8.8099 104.617 9.08333 105.867 9.63021C107.117 10.1641 108.165 10.9128 109.012 11.8763C109.871 12.8398 110.522 13.9792 110.965 15.2943C111.408 16.5964 111.629 18.0221 111.629 19.5716V19.9818C111.629 21.5182 111.408 22.944 110.965 24.2591C110.522 25.5612 109.871 26.7005 109.012 27.6771C108.165 28.6406 107.124 29.3893 105.887 29.9232C104.65 30.457 103.23 30.724 101.629 30.724C100.027 30.724 98.6016 30.457 97.3516 29.9232C96.1146 29.3893 95.0664 28.6406 94.207 27.6771C93.3607 26.7005 92.7161 25.5612 92.2734 24.2591C91.8307 22.944 91.6094 21.5182 91.6094 19.9818ZM97.2344 19.5716V19.9818C97.2344 20.8672 97.3125 21.694 97.4688 22.4622C97.625 23.2305 97.8724 23.9076 98.2109 24.4935C98.5625 25.0664 99.0182 25.5156 99.5781 25.8411C100.138 26.1667 100.822 26.3294 101.629 26.3294C102.41 26.3294 103.081 26.1667 103.641 25.8411C104.201 25.5156 104.65 25.0664 104.988 24.4935C105.327 23.9076 105.574 23.2305 105.73 22.4622C105.9 21.694 105.984 20.8672 105.984 19.9818V19.5716C105.984 18.7122 105.9 17.9049 105.73 17.1497C105.574 16.3815 105.32 15.7044 104.969 15.1185C104.63 14.5195 104.181 14.0508 103.621 13.7122C103.061 13.3737 102.384 13.2044 101.59 13.2044C100.796 13.2044 100.118 13.3737 99.5586 13.7122C99.0117 14.0508 98.5625 14.5195 98.2109 15.1185C97.8724 15.7044 97.625 16.3815 97.4688 17.1497C97.3125 17.9049 97.2344 18.7122 97.2344 19.5716Z" fill="#FB7415"/>
<path d="M121.121 24.8646L125.516 9.20052H129.09L127.938 15.3529L123.543 30.3333H120.555L121.121 24.8646ZM118.895 9.20052L122.039 24.8451L122.332 30.3333H118.816L113.465 9.20052H118.895ZM133.113 24.5911L136.18 9.20052H141.629L136.277 30.3333H132.781L133.113 24.5911ZM129.578 9.20052L133.953 24.7474L134.559 30.3333H131.551L127.156 15.3724L126.043 9.20052H129.578Z" fill="#FB7415"/>
<path d="M154.812 9.20052V13.1849H142.508V9.20052H154.812ZM145.555 3.98568H151.18V23.9661C151.18 24.5781 151.258 25.0469 151.414 25.3724C151.583 25.6979 151.831 25.9258 152.156 26.056C152.482 26.1732 152.892 26.2318 153.387 26.2318C153.738 26.2318 154.051 26.2188 154.324 26.1927C154.611 26.1536 154.852 26.1146 155.047 26.0755L155.066 30.2161C154.585 30.3724 154.064 30.4961 153.504 30.5872C152.944 30.6784 152.326 30.724 151.648 30.724C150.411 30.724 149.331 30.5221 148.406 30.1185C147.495 29.7018 146.792 29.0378 146.297 28.1263C145.802 27.2148 145.555 26.0169 145.555 24.5326V3.98568Z" fill="#FB7415"/>
<path d="M163.504 0.333333V30.3333H157.879V0.333333H163.504ZM162.703 19.0247H161.16C161.173 17.5534 161.368 16.1992 161.746 14.9622C162.124 13.7122 162.664 12.6315 163.367 11.7201C164.07 10.7956 164.91 10.0794 165.887 9.57162C166.876 9.0638 167.97 8.8099 169.168 8.8099C170.21 8.8099 171.154 8.95964 172 9.25912C172.859 9.54557 173.595 10.0143 174.207 10.6654C174.832 11.3034 175.314 12.1432 175.652 13.1849C175.991 14.2266 176.16 15.4896 176.16 16.974V30.3333H170.496V16.9349C170.496 15.9974 170.359 15.2617 170.086 14.7279C169.826 14.181 169.441 13.7969 168.934 13.5755C168.439 13.3411 167.827 13.224 167.098 13.224C166.29 13.224 165.6 13.3737 165.027 13.6732C164.467 13.9727 164.018 14.3893 163.68 14.9232C163.341 15.444 163.094 16.056 162.938 16.7591C162.781 17.4622 162.703 18.2174 162.703 19.0247Z" fill="#FB7415"/>
<path d="M24.5 13.3333C28.3675 13.3333 31.5 10.35 31.5 6.66667C31.5 2.98333 28.3675 0 24.5 0C20.6325 0 17.5 2.98333 17.5 6.66667C17.5 10.35 20.6325 13.3333 24.5 13.3333ZM8.75 10V6.66667C8.75 5.75 7.9625 5 7 5C6.0375 5 5.25 5.75 5.25 6.66667V10H1.75C0.7875 10 0 10.75 0 11.6667C0 12.5833 0.7875 13.3333 1.75 13.3333H5.25V16.6667C5.25 17.5833 6.0375 18.3333 7 18.3333C7.9625 18.3333 8.75 17.5833 8.75 16.6667V13.3333H12.25C13.2125 13.3333 14 12.5833 14 11.6667C14 10.75 13.2125 10 12.25 10H8.75ZM24.5 16.6667C19.8275 16.6667 10.5 18.9 10.5 23.3333V25C10.5 25.9167 11.2875 26.6667 12.25 26.6667H36.75C37.7125 26.6667 38.5 25.9167 38.5 25V23.3333C38.5 18.9 29.1725 16.6667 24.5 16.6667Z" fill="#FB7415"/>
</svg>
