<svg width="49" height="59" viewBox="0 0 49 59" fill="none" xmlns="http://www.w3.org/2000/svg">
<path d="M49 29.5C49.0018 30.2704 48.8079 31.0283 48.4371 31.6997C48.0664 32.3712 47.5313 32.9335 46.8841 33.332L6.77091 58.332C6.09461 58.7539 5.32003 58.9843 4.52715 58.9992C3.73427 59.0142 2.95184 58.8132 2.26068 58.4171C1.5761 58.0272 1.00583 57.4585 0.608501 56.7695C0.211177 56.0806 0.00114387 55.2963 0 54.4972V4.50279C0.00114387 3.70373 0.211177 2.9194 0.608501 2.23046C1.00583 1.54152 1.5761 0.972834 2.26068 0.582878C2.95184 0.18677 3.73427 -0.0141807 4.52715 0.000778157C5.32003 0.015737 6.09461 0.246064 6.77091 0.667971L46.8841 25.668C47.5313 26.0665 48.0664 26.6288 48.4371 27.3003C48.8079 27.9717 49.0018 28.7296 49 29.5Z" fill="white"/>
</svg>
