<svg width="40" height="40" viewBox="0 0 40 40" fill="none" xmlns="http://www.w3.org/2000/svg">
<path d="M16.6667 13.3334V23.3334L24.5 28.1667L25.8333 26.1667L19.1667 22.1667V13.3334H16.6667Z" fill="#FB7415"/>
<path d="M29.8667 20C30.1179 21.6565 30.0071 23.3479 29.542 24.9575C29.0768 26.5672 28.2683 28.0569 27.1722 29.3241C26.0761 30.5913 24.7183 31.6059 23.1924 32.298C21.6666 32.9901 20.0088 33.3433 18.3333 33.3333C11.8333 33.3333 6.66666 28.1666 6.66666 21.6666C6.66666 15.1666 11.8333 9.99996 18.3333 9.99996C19.5 9.99996 20.6167 10.1666 21.6667 10.4833V7.04996C20.6 6.79996 19.4833 6.66663 18.3333 6.66663C10 6.66663 3.33333 13.3333 3.33333 21.6666C3.33333 30 10 36.6666 18.3333 36.6666C20.4461 36.6754 22.5368 36.2359 24.4672 35.3771C26.3976 34.5183 28.1239 33.2598 29.5321 31.6847C30.9402 30.1095 31.9983 28.2536 32.6363 26.2394C33.2743 24.2252 33.4778 22.0986 33.2333 20H29.8667Z" fill="#FB7415"/>
<path d="M33.3333 8.33337V3.33337H30V8.33337H25V11.6667H30V16.6667H33.3333V11.6667H38.3333V8.33337H33.3333Z" fill="#FB7415"/>
</svg>
