<svg width="38" height="38" viewBox="0 0 38 38" fill="none" xmlns="http://www.w3.org/2000/svg">
<path fill-rule="evenodd" clip-rule="evenodd" d="M22.1667 3.16666C22.1668 2.81859 22.0523 2.48016 21.8408 2.20373C21.6293 1.92729 21.3326 1.72826 20.9966 1.63741C20.6606 1.54656 20.304 1.56896 19.982 1.70114C19.66 1.83332 19.3906 2.06793 19.2153 2.36866L8.132 21.3687C7.99159 21.6093 7.91715 21.8827 7.91621 22.1613C7.91526 22.4399 7.98784 22.7138 8.12661 22.9554C8.26539 23.1969 8.46545 23.3976 8.70658 23.5371C8.94772 23.6766 9.22141 23.7501 9.5 23.75H15.8333V34.8333C15.8332 35.1814 15.9477 35.5198 16.1592 35.7963C16.3707 36.0727 16.6674 36.2717 17.0034 36.3626C17.3394 36.4534 17.696 36.431 18.018 36.2988C18.34 36.1667 18.6094 35.9321 18.7847 35.6313L29.868 16.6313C30.0084 16.3907 30.0828 16.1173 30.0838 15.8387C30.0847 15.5601 30.0122 15.2862 29.8734 15.0446C29.7346 14.8031 29.5346 14.6024 29.2934 14.4629C29.0523 14.3233 28.7786 14.2499 28.5 14.25H22.1667V3.16666Z" fill="#FB7415"/>
</svg>
