<svg width="40" height="28" viewBox="0 0 40 28" fill="none" xmlns="http://www.w3.org/2000/svg">
<path d="M0 0V28H40V0H0ZM10 24C10 22.4087 9.36786 20.8826 8.24264 19.7574C7.11742 18.6321 5.5913 18 4 18V10C5.5913 10 7.11742 9.36786 8.24264 8.24264C9.36786 7.11742 10 5.5913 10 4H30C30 5.5913 30.6321 7.11742 31.7574 8.24264C32.8826 9.36786 34.4087 10 36 10V18C34.4087 18 32.8826 18.6321 31.7574 19.7574C30.6321 20.8826 30 22.4087 30 24H10ZM20 8C22.2 8 24 10.6 24 14C24 17.4 22.2 20 20 20C17.8 20 16 17.4 16 14C16 10.6 17.8 8 20 8Z" fill="#FB7415"/>
</svg>
