<svg width="42" height="32" viewBox="0 0 42 32" fill="none" xmlns="http://www.w3.org/2000/svg">
<path d="M26.7273 16C30.9464 16 34.3636 12.42 34.3636 8C34.3636 3.58 30.9464 0 26.7273 0C22.5082 0 19.0909 3.58 19.0909 8C19.0909 12.42 22.5082 16 26.7273 16ZM9.54545 12V8C9.54545 6.9 8.68636 6 7.63636 6C6.58636 6 5.72727 6.9 5.72727 8V12H1.90909C0.859091 12 0 12.9 0 14C0 15.1 0.859091 16 1.90909 16H5.72727V20C5.72727 21.1 6.58636 22 7.63636 22C8.68636 22 9.54545 21.1 9.54545 20V16H13.3636C14.4136 16 15.2727 15.1 15.2727 14C15.2727 12.9 14.4136 12 13.3636 12H9.54545ZM26.7273 20C21.63 20 11.4545 22.68 11.4545 28V30C11.4545 31.1 12.3136 32 13.3636 32H40.0909C41.1409 32 42 31.1 42 30V28C42 22.68 31.8245 20 26.7273 20Z" fill="#FB7415"/>
</svg>
